HIERARCHY
ROOT Hips
{
	OFFSET 0.00000 0.00000 0.00000
	CHANNELS 6 Xposition Yposition Zposition Zrotation Yrotation Xrotation 
	JOINT LHipJoint
	{
		OFFSET 0 0 0
		CHANNELS 3 Zrotation Yrotation Xrotation
		JOINT LeftUpLeg
		{
			OFFSET 2.36090 -1.39315 1.24752
			CHANNELS 3 Zrotation Yrotation Xrotation
			JOINT LeftLeg
			{
				OFFSET 2.06810 -5.68207 0.00000
				CHANNELS 3 Zrotation Yrotation Xrotation
				JOINT LeftFoot
				{
					OFFSET 2.46631 -6.77613 0.00000
					CHANNELS 3 Zrotation Yrotation Xrotation
					JOINT LeftToeBase
					{
						OFFSET 0.26031 -0.71520 1.99545
						CHANNELS 3 Zrotation Yrotation Xrotation
						End Site
						{
							OFFSET 0.00000 -0.00000 1.05957
						}
					}
				}
			}
		}
	}
	JOINT RHipJoint
	{
		OFFSET 0 0 0
		CHANNELS 3 Zrotation Yrotation Xrotation
		JOINT RightUpLeg
		{
			OFFSET -2.25243 -1.39315 1.24752
			CHANNELS 3 Zrotation Yrotation Xrotation
			JOINT RightLeg
			{
				OFFSET -2.17343 -5.97145 0.00000
				CHANNELS 3 Zrotation Yrotation Xrotation
				JOINT RightFoot
				{
					OFFSET -2.52372 -6.93386 0.00000
					CHANNELS 3 Zrotation Yrotation Xrotation
					JOINT RightToeBase
					{
						OFFSET -0.22538 -0.61923 2.11447
						CHANNELS 3 Zrotation Yrotation Xrotation
						End Site
						{
							OFFSET -0.00000 -0.00000 1.10506
						}
					}
				}
			}
		}
	}
	JOINT LowerBack
	{
		OFFSET 0 0 0
		CHANNELS 3 Zrotation Yrotation Xrotation
		JOINT Spine
		{
			OFFSET 0.01594 2.13103 0.08007
			CHANNELS 3 Zrotation Yrotation Xrotation
			JOINT Spine1
			{
				OFFSET 0.01393 2.09723 0.18338
				CHANNELS 3 Zrotation Yrotation Xrotation
				JOINT Neck
				{
					OFFSET 0 0 0
					CHANNELS 3 Zrotation Yrotation Xrotation
					JOINT Neck1
					{
						OFFSET 0.05351 1.38915 0.32494
						CHANNELS 3 Zrotation Yrotation Xrotation
						JOINT Head
						{
							OFFSET 0.00711 1.45992 -0.21666
							CHANNELS 3 Zrotation Yrotation Xrotation
							End Site
							{
								OFFSET -0.00433 1.47702 -0.11056
							}
						}
					}
				}
				JOINT LeftShoulder
				{
					OFFSET 0 0 0
					CHANNELS 3 Zrotation Yrotation Xrotation
					JOINT LeftArm
					{
						OFFSET 2.87198 0.92249 0.11132
						CHANNELS 3 Zrotation Yrotation Xrotation
						JOINT LeftForeArm
						{
							OFFSET 5.52731 -0.00000 0.00000
							CHANNELS 3 Zrotation Yrotation Xrotation
							JOINT LeftHand
							{
								OFFSET 3.11059 -0.00000 0.00000
								CHANNELS 3 Zrotation Yrotation Xrotation
								JOINT LeftFingerBase
								{
									OFFSET 0 0 0
									CHANNELS 3 Zrotation Yrotation Xrotation
									JOINT LeftHandIndex1
									{
										OFFSET 0.41963 -0.00000 0.00000
										CHANNELS 3 Zrotation Yrotation Xrotation
										End Site
										{
											OFFSET 0.33831 -0.00000 0.00000
										}
									}
								}
								JOINT LThumb
								{
									OFFSET 0 0 0
									CHANNELS 3 Zrotation Yrotation Xrotation
									End Site
									{
										OFFSET 0.34348 -0.00000 0.34348
									}
								}
							}
						}
					}
				}
				JOINT RightShoulder
				{
					OFFSET 0 0 0
					CHANNELS 3 Zrotation Yrotation Xrotation
					JOINT RightArm
					{
						OFFSET -2.94710 0.68072 0.32187
						CHANNELS 3 Zrotation Yrotation Xrotation
						JOINT RightForeArm
						{
							OFFSET -5.25396 -0.00000 -0.00000
							CHANNELS 3 Zrotation Yrotation Xrotation
							JOINT RightHand
							{
								OFFSET -3.10567 -0.00000 0.00000
								CHANNELS 3 Zrotation Yrotation Xrotation
								JOINT RightFingerBase
								{
									OFFSET 0 0 0
									CHANNELS 3 Zrotation Yrotation Xrotation
									JOINT RightHandIndex1
									{
										OFFSET -0.49868 -0.00000 0.00000
										CHANNELS 3 Zrotation Yrotation Xrotation
										End Site
										{
											OFFSET -0.40204 -0.00000 0.00000
										}
									}
								}
								JOINT RThumb
								{
									OFFSET 0 0 0
									CHANNELS 3 Zrotation Yrotation Xrotation
									End Site
									{
										OFFSET -0.40818 -0.00000 0.40818
									}
								}
							}
						}
					}
				}
			}
		}
	}
}
MOTION
Frames: 11
Frame Time: 0.030303
0.00 0.00 0.00 0 0 0 0 0 0 -21 0 0 0 0 0 0 0 0 0 0 0 0 0 0 21 0 0 0 0 0 0 0 0 0 0 0 0 0 0 0 0 0 0 0 0 0 0 -16 0 0 21 0 0 11 0 0 0 -8 0 0 0 0 0 0 0 0 0 0 0 0 0 0 0 0 0 0 0 0 8 0 0 0 0 0 0 0 0 0 0 0 0 0 0 0 0 0
0.00 0.00 0.00 -127.3660 -44.5020 4.9878 0.0000 0.0000 0.0000 -24.7212 -28.4589 39.5923 0.8848 5.9962 16.7733 2.3851 -3.9710 30.7974 0.1262 2.2904 6.3090 0.0000 0.0000 0.0000 -36.6468 -40.6898 22.7848 -28.3864 -18.2225 115.2413 7.1305 41.4168 19.6985 -0.0376 -1.2517 3.4416 -3.3970 -11.5153 23.4673 2.5895 -17.3658 9.7371 8.2944 -9.7958 0.0226 6.3165 5.1002 -26.1187 -3.9525 6.0709 28.3934 -1.4802 2.6454 14.4777 -0.0000 0.0000 0.0000 -71.8370 18.5427 40.7304 93.7117 -59.9479 -63.2139 -0.0000 0.0000 -35.1098 -20.3501 2.4780 -0.9187 -7.1250 0.0000 -0.0000 -35.3679 30.5212 15.2924 -0.0000 0.0000 0.0000 56.4527 -7.2169 34.1903 -112.0523 58.0803 -78.9747 0.0000 -0.0000 -11.6280 21.2101 -13.0405 -5.0044 7.1250 -0.0000 -0.0000 40.4390 -39.4143 6.9676
0.00 0.00 0.00 -124.0390 -45.0321 3.5283 0.0000 0.0000 0.0000 -28.1892 -31.1589 25.8841 4.0789 12.2646 36.6746 1.8592 -2.4560 26.7429 0.0268 1.0574 2.9066 0.0000 0.0000 0.0000 -37.9726 -40.9624 21.6811 -28.2268 -18.2931 114.7318 7.0992 41.3477 19.6679 -0.0079 -0.5754 1.5812 -5.5949 -11.2263 22.2511 1.9728 -17.2812 9.6394 8.3888 -9.7680 0.9021 6.1543 5.1249 -26.3578 -3.7903 6.1094 28.4383 -1.3750 2.6649 14.5363 -0.0000 0.0000 0.0000 -71.2562 18.2088 39.6694 91.6944 -59.9891 -61.4674 -0.0000 0.0000 -35.5891 -20.1313 2.7601 -1.0113 -7.1250 0.0000 -0.0000 -35.3324 30.7906 14.9758 -0.0000 0.0000 0.0000 56.7108 -7.0412 34.5670 -112.0326 58.0839 -78.9580 0.0000 -0.0000 -12.1719 21.5829 -12.9247 -5.0564 7.1250 -0.0000 -0.0000 40.6315 -39.2714 7.2047
0.00 0.00 0.00 -119.4650 -45.4566 2.4372 0.0000 0.0000 0.0000 -29.9305 -33.7193 9.5761 9.0478 16.8384 56.2552 1.8900 0.7065 25.8111 0.0134 0.7472 2.0535 0.0000 0.0000 0.0000 -41.0823 -42.3343 19.9543 -28.2944 -18.2634 114.9475 7.5601 42.3354 19.2493 -0.0023 -0.3073 0.8444 -8.6598 -10.9989 20.0868 1.4457 -17.2638 9.1131 8.8165 -9.7778 2.1035 5.7801 5.0715 -26.8221 -3.5248 6.0871 28.7578 -1.2027 2.6428 14.7473 -0.0000 0.0000 0.0000 -70.6458 18.0835 38.7502 90.1174 -59.9999 -60.1017 -0.0000 0.0000 -36.8556 -18.0979 3.0749 -1.0043 -7.1250 0.0000 -0.0000 -34.1533 31.2727 13.7549 -0.0000 0.0000 0.0000 57.0493 -6.8059 34.2486 -111.7890 58.1278 -78.7512 0.0000 -0.0000 -12.5224 21.3849 -12.9133 -5.0013 7.1250 -0.0000 -0.0000 40.4924 -39.2870 7.1464
0.00 0.00 0.00 -119.1210 -44.6674 0.3194 0.0000 0.0000 0.0000 -30.8443 -35.0868 -3.5312 15.6951 19.5498 77.3220 1.9676 2.4452 25.8847 0.0315 1.1462 3.1511 0.0000 0.0000 0.0000 -43.1440 -43.6934 20.0236 -27.8069 -18.4711 113.4003 4.0385 36.5557 32.8148 -0.4386 -4.2496 11.7800 -8.7897 -10.7463 22.4778 0.9876 -17.1759 9.9265 8.8641 -9.8061 1.7109 5.4524 4.8333 -27.7572 -2.8654 5.5921 28.8690 -0.9618 2.4915 14.9257 -0.0000 0.0000 0.0000 -69.6111 16.9847 38.8295 88.4029 -59.9904 -58.6169 -0.0000 0.0000 -39.3647 -15.3417 4.7299 -1.2960 -7.1250 0.0000 -0.0000 -32.8987 32.9707 11.3971 -0.0000 0.0000 0.0000 58.2126 -6.4431 33.4403 -110.5966 58.3348 -77.7374 0.0000 -0.0000 -12.2073 20.7889 -12.6141 -4.7394 7.1250 -0.0000 -0.0000 39.9377 -39.1135 7.2165
0.00 0.00 0.00 -125.3580 -42.6051 -3.3242 0.0000 0.0000 0.0000 -31.9302 -34.3761 -3.0165 20.1054 19.9997 90.3083 2.0238 1.8258 26.4150 0.0809 1.8347 5.0491 0.0000 0.0000 0.0000 -41.7383 -42.8755 25.3791 -26.4989 -18.9557 109.3251 -3.0396 22.4434 46.3546 -2.2041 -9.2790 26.6719 -4.4857 -10.8451 31.0404 0.7578 -17.0818 12.4386 8.2195 -9.9084 -0.6816 5.1836 4.4871 -28.8075 -2.0012 4.8231 28.7524 -0.7006 2.2707 15.0146 -0.0000 -0.0000 0.0000 -68.0832 15.2601 39.5608 87.1849 -59.9700 -57.5623 -0.0000 0.0000 -39.8008 -14.3179 6.5028 -1.6557 -7.1250 0.0000 -0.0000 -32.8236 34.6062 9.7822 -0.0000 -0.0000 0.0000 60.3326 -6.2948 32.4395 -109.5977 58.4979 -76.8865 0.0000 -0.0000 -11.4913 20.7189 -12.5592 -4.7019 7.1250 -0.0000 -0.0000 39.8627 -39.0765 7.2425
0.00 0.00 0.00 -130.1800 -41.1567 -7.8808 0.0000 0.0000 0.0000 -36.9550 -35.8192 -7.1765 26.4429 18.9742 109.1528 2.4106 2.6471 28.7064 0.4085 4.1029 11.3664 0.0000 0.0000 0.0000 -46.1230 -42.3036 29.9283 -25.5697 -19.2394 106.4857 0.5770 29.1728 38.0072 -1.4529 -7.6190 21.5626 -0.6502 -11.6193 40.4341 0.5386 -17.3539 13.9534 7.0685 -10.2054 -2.8708 5.3458 4.3799 -29.7053 -1.3746 4.2833 27.6455 -0.5652 2.1698 14.6669 0.0000 -0.0000 0.0000 -66.7865 12.4381 38.7453 84.2455 -59.8745 -55.0186 -0.0000 0.0000 -40.1836 -11.3044 8.6776 -1.7275 -7.1250 0.0000 -0.0000 -31.4535 36.7677 7.2859 0.0000 -0.0000 0.0000 63.2921 -5.2982 32.3747 -106.8145 58.9043 -74.5082 0.0000 -0.0000 -10.9041 19.6141 -12.5863 -4.4404 7.1250 -0.0000 -0.0000 39.1179 -39.2337 6.8467
0.00 0.00 0.00 -137.3140 -39.0056 -14.1026 0.0000 0.0000 0.0000 -60.8260 -42.0023 7.5884 31.1843 16.6876 124.5495 2.6815 12.6447 29.5837 1.2830 7.1780 20.2437 0.0000 0.0000 0.0000 -56.7140 -40.1229 38.2396 -26.1179 -19.0779 108.1560 1.5441 34.2243 41.4090 -0.9494 -6.2052 17.3811 5.0627 -14.0452 54.2498 1.2188 -17.9786 14.2819 6.5078 -11.0261 -4.3970 4.3463 3.6333 -33.3622 -0.5210 3.1477 26.5326 -0.2431 1.7086 14.8091 0.0000 -0.0000 0.0000 -66.0169 6.4639 35.6986 75.2624 -59.1632 -47.2728 -0.0000 0.0000 -45.6071 5.4002 0.7202 0.0681 -7.1250 0.0000 -0.0000 -16.6205 30.4477 6.1388 0.0000 -0.0000 0.0000 66.2349 -1.1717 29.7454 -90.9565 59.9965 -60.8284 0.0000 -0.0000 -16.9571 11.2952 -13.4836 -2.6664 7.1250 -0.0000 -0.0000 33.4226 -40.9245 3.8596
0.00 0.00 0.00 -146.6980 -35.5801 -17.3054 0.0000 0.0000 0.0000 -76.5868 -40.9261 24.6399 32.3883 15.8261 128.8485 3.0733 16.1708 32.0065 2.6000 10.0174 29.0332 0.0000 0.0000 0.0000 -58.6669 -38.3891 46.1489 -26.0773 -19.0904 108.0319 -2.4539 30.8535 51.8058 -1.3112 -7.2533 20.4681 14.6425 -20.0066 64.1446 1.5974 -18.6669 13.3273 4.3897 -11.6428 -5.7161 2.4616 1.7924 -37.0430 1.3970 0.6321 27.0360 0.3536 0.7665 15.6593 0.0000 -0.0000 0.0000 -64.2883 -3.9117 38.9567 60.8862 -56.5415 -35.0794 -0.0000 0.0000 -49.8498 16.3577 -1.0835 -0.3180 -7.1250 0.0000 -0.0000 -7.9417 28.8123 3.1588 0.0000 -0.0000 0.0000 71.6939 2.8079 25.0936 -70.5605 58.5228 -43.2484 0.0000 -0.0000 -22.4479 2.2605 -17.0628 -0.6636 7.1250 -0.0000 -0.0000 27.6872 -45.0547 -0.0406
0.00 0.00 0.00 -158.3200 -36.6358 -18.7780 0.0000 0.0000 0.0000 -93.6317 -41.1256 30.6257 32.8900 15.4238 130.7108 2.2479 18.8127 28.1920 2.0981 9.0675 26.0066 0.0000 0.0000 0.0000 -71.5235 -37.0442 40.9817 -27.7771 -18.4833 113.3063 4.7215 44.6550 49.0478 -1.2387 -7.0575 19.8858 24.8608 -30.8803 79.9203 1.9729 -18.8191 3.0903 4.5302 -11.5206 -14.5048 0.1281 2.5321 -26.5339 -1.9236 4.0641 22.8815 -0.0336 1.5251 11.9544 0.0000 -0.0000 0.0000 -75.2035 -22.4220 47.8844 23.8427 -34.9975 -7.6161 -0.0000 0.0000 -69.6368 -21.6021 9.2697 -3.6496 -7.1250 0.0000 -0.0000 -38.8846 36.2112 10.5002 0.0000 -0.0000 0.0000 70.9902 18.3845 30.2523 -20.4910 31.2293 -5.7837 0.0000 -0.0000 -36.7223 8.9462 -16.1334 -2.5047 7.1250 -0.0000 -0.0000 32.8013 -43.4552 1.4157
0.00 0.00 0.00 -154.2250 -37.7867 -22.4900 0.0000 0.0000 0.0000 -91.7632 -42.2019 21.7011 32.5032 15.7364 129.2706 1.9608 19.0476 26.6811 1.4998 7.7355 21.9136 0.0000 0.0000 0.0000 -87.1254 -34.8230 39.4452 -28.7595 -18.0508 116.4400 15.0451 54.1684 40.9181 -1.1703 -6.8670 19.3219 20.6659 -29.6147 83.8925 2.5536 -19.4767 1.1901 7.0232 -11.5308 -16.5163 -0.2815 3.2599 -23.9560 -3.4911 5.6002 21.8584 -0.3244 1.9958 11.1521 -0.0000 -0.0000 0.0000 -77.3898 -21.9308 49.6981 23.1963 -34.3028 -7.2486 -0.0000 0.0000 -67.9919 -36.3391 13.0715 -9.4460 -7.1250 0.0000 -0.0000 -48.8521 36.9227 14.4223 -0.0000 -0.0000 0.0000 69.9785 20.2947 30.9673 -18.0291 28.1945 -4.5630 0.0000 -0.0000 -35.4629 32.5614 -13.3118 -8.3644 7.1250 -0.0000 -0.0000 47.3315 -37.9119 11.7260
